<svg xmlns="http://www.w3.org/2000/svg" viewBox="0 0 4680 3120"><defs><style>.cls-1,.cls-3{fill:#fff;}.cls-2{fill:#f3f5f4;}.cls-3{stroke:#000;stroke-miterlimit:10;stroke-width:4px;}.cls-4{fill:#b6cec4;}.cls-5{opacity:0.72;}.cls-6{fill:#d3e0db;}.cls-7{fill:#a8c47a;}.cls-8{fill:#84a05c;}.cls-9{opacity:0.47;}.cls-10{fill:#ffc83e;}.cls-11{fill:#f28b0f;}.cls-12{opacity:0.3;}.cls-13{fill:#9ab5a9;}.cls-14{opacity:0.56;}.cls-15{fill:#60723d;}.cls-16{fill:#0b3f42;}.cls-17{fill:#fcdccd;}.cls-18,.cls-22,.cls-31{fill:#f2ad94;}.cls-18{opacity:0.54;}.cls-19{fill:#fdb23d;}.cls-20{fill:#ea9378;}.cls-21{opacity:0.8;}.cls-23{fill:#282828;}.cls-24,.cls-31{opacity:0.66;}.cls-25{opacity:0.49;}.cls-26{fill:#070208;}.cls-27{fill:#c73f00;}.cls-28{fill:#ac2a03;}.cls-29{fill:#8e1c02;}.cls-30{fill:#296f7a;}</style></defs><title>04</title><g id="_04" data-name="04"><rect id="_04-2" data-name="04" class="cls-1" width="4680" height="3120"/><path class="cls-2" d="M3379.93,2728.09c-162.47,8.58-325.24,6-487.85,8.77-171.6,3-343.34.48-514.77,10.14-342.58,19.3-688.73,24.49-1027.61-37.43-24.26-4.43-52.16-7.81-74.25-23.12-90.59-62.85,139.83-78.56,160.66-79.57,370.91-18.12,743.87-29.65,1113.61-48.29,318.83-16.07,632.53-4.82,951.7,15,36.49,2.27,358.07,5.56,308,83.26-9.89,15.34-29.15,21.2-46.92,25.4-122.75,29-253.93,39-379.77,45.7Z"/><polyline class="cls-3" points="1360.19 2649.89 1800.16 2649.89 1865.55 2649.89 1971.96 2649.89 2208.11 2649.89 2768.15 2649.89 3053.89 2649.89 3070.01 2649.89 3070.06 2649.89 3150.83 2649.89 3274.1 2649.89 3279.86 2649.89 3520.14 2649.89 3656.65 2649.89"/><path class="cls-4" d="M3656.65,2655.47H1360.19c-2,0-3.58-2.5-3.58-5.58s1.61-5.57,3.58-5.57H3656.65c2,0,3.58,2.49,3.58,5.57S3658.63,2655.47,3656.65,2655.47Z"/><path class="cls-2" d="M3309.81,2193.76c-180.66,106.28-380.81,181.44-584.75,235-67.44,17.7-135.29,33.06-203,46.39q-43.38,8.55-87,15.95c-215.06,36.49-456.45,62.62-686.42,38.12-123.9-13.19-244.47-41.07-355.84-89.93q-38.08-16.7-74.65-36.76-2.65-1.46-5.29-2.93c-185.05-103.38-302.83-291.94-345.63-497.81-40.21-193.39-14.26-402,84.24-569.69,87-148.06,217.3-284,369.85-364.94a732.53,732.53,0,0,1,93-40.86c134.49-48.88,286.15-67.1,418.78-95.47,361-77.2,706.91-239.41,1082.09-239.9,126.73-.16,248.34,28.6,352.2,87.65C3457.8,730,3534.77,804.34,3590,902.55,3827,1324.06,3749.25,1935.26,3309.81,2193.76Z"/><g class="cls-5"><path class="cls-6" d="M3309.81,2193.76c-180.66,106.28-380.81,181.44-584.75,235-20.51-4.78-41.33-9.32-62.63-13.32-131.3-24.62-272.29-20.72-400.42-58-71.09-20.69-134.61-60.28-200.59-94.25,107.66-49.55,210.7-113.14,310.45-176.93,201-128.56,400.61-262.41,571.6-428.86s313.36-368.52,378.14-598.18c34.92-123.84,46.49-251.78,45.77-380.63C3457.8,730,3534.77,804.34,3590,902.55,3827,1324.06,3749.25,1935.26,3309.81,2193.76Z"/></g><path class="cls-4" d="M1788.85,2577.84c-241.86,0-471.43-107.92-647.46-304.65C973.93,2086,873.41,1837.7,865.6,1591.83c-2.26-71,8.28-142.51,31.31-212.44a644.41,644.41,0,0,1,100-190c16-21,36.77-40.88,65.31-62.63l6.7,8.79c-27.75,21.13-47.84,40.36-63.24,60.54-86.4,113.17-133.44,257.3-129.05,395.41,15,473.19,384.49,975.29,911.84,975.32,3.4,0,6.77,0,10.18-.06,253.11-3.1,534.24-60.35,835.58-170.16,28.1-10.24,56.48-21,84.34-32,303.4-119.74,729.89-319.55,929.84-670.91,171.86-302,74.48-743.82-217.08-984.86l7-8.52c69.71,57.63,130.06,127.85,179.38,208.71a884.06,884.06,0,0,1,105.64,256c45.38,190.61,22.16,380.29-65.37,534.11-45.68,80.25-105.76,157.27-178.6,228.89-65.48,64.4-143.31,126.43-231.31,184.36-142.55,93.84-309.53,177.25-525.48,262.47-28,11-56.42,21.83-84.61,32.1-142.46,51.92-281.26,92.48-412.54,120.57-148.11,31.7-291.67,48.61-426.68,50.26C1795.49,2577.82,1792.16,2577.84,1788.85,2577.84Z"/><path class="cls-4" d="M3258.6,602c-186.45-84.86-368.62-90.39-561.48-96.25l-4.7-.14c-37.41-1.14-76.1-2.31-115.22-4-33.3-1.47-60.65-6.31-83.63-14.77-29.76-11-51.27-28.06-63.93-50.82a201.86,201.86,0,0,1-9.61-20.9c-6.33-15.3-12.31-29.75-24.91-37.45-11.87-7.25-27.94-6.76-40.85-6.36-56.77,1.74-114.5,3.43-170.32,5.07-85.4,2.5-173.7,5.09-260.54,7.91l-.36-11c86.86-2.82,175.17-5.41,260.58-7.91,55.82-1.64,113.54-3.33,170.3-5.07,14.38-.44,32.27-1,46.94,8,15.68,9.57,22.64,26.38,29.37,42.64a190.4,190.4,0,0,0,9.05,19.76c20.36,36.6,66.92,56.76,138.4,59.93,39,1.73,77.69,2.9,115.07,4l4.7.14c194,5.89,377.24,11.46,565.72,97.24Z"/><path class="cls-4" d="M1270.84,958.09l-10-4.72c22.65-47.85,25.51-96.26,28.27-143.08,2.56-43.44,5-84.47,23.75-119.09,21-38.81,59.65-64.2,121.5-79.92,32.26-8.2,66.84-9.1,100.29-10,62.38-1.63,121.31-3.16,167.3-47.8,20-19.43,32.46-44.27,45.62-70.56,5.36-10.7,10.91-21.77,17-32.31l9.57,5.5c-5.89,10.27-11.36,21.19-16.65,31.76-13,26-26.45,52.8-47.81,73.53-49.09,47.64-113,49.31-174.7,50.92-32.84.86-66.8,1.75-97.86,9.64-58.65,14.91-95,38.57-114.51,74.48-17.6,32.46-19.95,72.3-22.44,114.48C1297.46,856.58,1294.41,908.31,1270.84,958.09Z"/><path class="cls-7" d="M3579.52,2259.85a44.75,44.75,0,0,0,10.28-30c19.37.22,39.47-3.28,55.34-14.4s26.51-31.07,22.56-50c-87,16.22-64.61,94.39-109.3,152.76a33.18,33.18,0,0,1,19.09-12.15c28.86-7,71.28,15.7,86.7,33.11,61.64,69.63,57.51,153.63-.87,223.26-26.65,31.8-65.33,66.25-107.28,88.55H3304.61a27.63,27.63,0,0,0-6,0H3085c-1.13,0-2.27.06-3.41.08h-.09l-2.87,0c-1.68,0-3.35,0-5,0q-1.62,0-3.21,0l-2.35-.06c-1.74,0-3.48-.11-5.21-.2-.68,0-1.35-.06-2-.1l-3.61-.22-3.62-.29c-1.19-.11-2.4-.23-3.6-.36-2-.2-4.06-.45-6.09-.73q-2.36-.32-4.71-.69-4.59-.75-9.12-1.71c-55-11.67-103.84-47.07-148.06-85.13-17.06-14.67-33.85-30-47.41-48.52-39.38-53.86-46.51-130.06-29.48-196.4a334.29,334.29,0,0,1,24.81-65.86,448.66,448.66,0,0,1,42.34-68c25.14-33.69,42.27-71.33,68.83-104.1,31.53-38.91,71.44-74.09,115.93-96.26,33.65-16.76,69.91-26.09,107.18-23.95,58.81,3.35,126.87,38.82,165.94,87.52,7.2-55.68,81.24-75.66,124.14-65.1,99.26,24.42,156.62,131.78,145.32,233.07"/><path class="cls-8" d="M3361.65,2178.89c-1.71-.83-1.21,3.21.61,2.66s2.14-2.93,2.16-4.83c.5-38.64,20-76.59,51.24-99.42,7.15,39.64-14.37,82.74-50.35,100.84"/><g class="cls-9"><path class="cls-8" d="M3389.86,2297.67c-1.7-.82-1.2,3.21.61,2.67s2.32-2.94,2.17-4.84c-3.83-47.27,20.05-76.59,51.23-99.42,7.16,39.64,6.2,78.51-50.35,100.85"/></g><g class="cls-9"><path class="cls-8" d="M3663.32,2562.36c-26.65,31.8-65.33,66.25-107.28,88.55H3304.61a27.63,27.63,0,0,0-6,0H3145c-20.21-1.1-40.81-.28-58.65,0l-4.75.08h-.09c-3.86,0-7.58,0-11.11,0l-2.35-.06c-1.74,0-3.48-.11-5.21-.2-.68,0-1.35-.06-2-.1l-3.61-.22-3.62-.29c-1.19-.11-2.4-.23-3.6-.36-2-.21-4.06-.46-6.09-.73q-2.36-.32-4.71-.69-4.59-.75-9.12-1.71c-7.48-5.36-14.49-10.6-20.85-15.42-45.95-34.87-77.56-85.33-102.85-137.17a857,857,0,0,1-74-228.37q-1.3-7.43-2.44-15a448.66,448.66,0,0,1,42.34-68c25.14-33.69,42.27-71.33,68.83-104.1,31.53-38.91,71.44-74.09,115.93-96.26-1.37,10.64-1.44,21.52-1.31,32.28q.48,41.36,4.46,82.6c4.71,48.79,28.75,97.9,54.86,138.43,13.22-30.46,55.92-47.3,88.12-46.65,7.38,16.68.37,36.92-12.2,50.15-11.95,12.58-28.91,21.2-44.54,28.1,55.4,34.3,86.89,92.84,108.51,152.15,16.07,44.09,48.26,95.58,106.24,68.52-25.07-36.32-19.84-90.41,11.72-121.25,47.43,18.4,69.54,83.32,43.19,126.83,43.41,17.06,93.89,23.89,135.88,3.6s69.14-74.39,48.14-116c-20.81,2.5-42.68,4.87-62.06-3.11s-34.62-30.12-27.42-49.8a80.07,80.07,0,0,0,63.77,23.64c-12.89-11.41-9.4-33.93,3.08-45.78l0,0c28.86-7,71.28,15.7,86.7,33.11C3725.83,2408.73,3721.7,2492.73,3663.32,2562.36Z"/></g><path class="cls-7" d="M3217.71,1987.27l-.4-.41a95.81,95.81,0,0,1-25.5-81.53,57.42,57.42,0,0,1,30.85,87.46"/><path class="cls-8" d="M3315.59,2058.59l-1.24-15.92c-1.21-15.41-2.39-31.17,1.66-46.09s14.42-29,29.28-33.26c9,32.64-1.38,69.84-25.89,93.18l-1.11-30.45"/><path class="cls-8" d="M3516.77,2141.41l1.92-13.17c1.86-12.75,3.81-25.78,9.85-37.15s17.07-21,29.93-21.65c1.27,28.19-14,56.51-38.22,71l4.71-25"/><path class="cls-8" d="M3176.8,2124.16c-28.38-9.33-50.61-35.25-55.49-64.72,18.08-2.88,36,8.59,46.23,23.79s14.27,33.57,18.13,51.47"/><path class="cls-10" d="M3278.55,2096.11c12,4.45,30.93-8.08,24.45-28.58-5.88-18.57-31.53-8.45-33.41,8.4C3268.29,2087.55,3272.59,2093.91,3278.55,2096.11Z"/><path class="cls-10" d="M3383.25,2335.49c12,4.45,30.93-8.08,24.44-28.58-5.88-18.57-31.52-8.45-33.4,8.39C3373,2326.92,3377.28,2333.29,3383.25,2335.49Z"/><path class="cls-11" d="M3534.71,2465.76c12,4.44,30.93-8.08,24.44-28.58-5.88-18.57-31.52-8.45-33.4,8.39C3524.45,2457.19,3528.74,2463.56,3534.71,2465.76Z"/><path class="cls-10" d="M3219.74,2242.72c6,2.65,15.46-4.82,12.22-17-2.94-11.08-15.76-5-16.7,5C3214.61,2237.61,3216.75,2241.41,3219.74,2242.72Z"/><path class="cls-10" d="M3521.37,2071.22c6,2.66,15.46-4.82,12.22-17-2.94-11.08-15.76-5-16.7,5C3516.24,2066.11,3518.39,2069.91,3521.37,2071.22Z"/><path class="cls-7" d="M1755.49,2252c-17.45-21.07-65.39-48.53-98-40a37.3,37.3,0,0,0-21.57,14.7c24.16-33.77,31-73,42.24-106.89-1.18,0-2.37.06-3.56.07l7.89-19.3c12.78-122.51-52.06-252.34-164.26-281.89-37-9.75-94.54,2-123.33,38.11h0a79.35,79.35,0,0,0-16.62,38h0c-.14.88-.26,1.75-.37,2.64-.26-.34-.5-.67-.76-1q-5.82-7.69-12.38-15l-.81-.92c-1.66-1.82-3.32-3.61-5-5.37h0a290.23,290.23,0,0,0-93.19-64.48,257.63,257.63,0,0,0-33.6-11.89,203.6,203.6,0,0,0-41.8-7.19c-42.13-2.59-83.12,8.68-121.16,29-37.41,20-72,48.61-101.88,81.36,42.8,205.87,160.58,394.43,345.63,497.81q2.64,1.47,5.29,2.93c17.59,26.14,41.86,44.22,74.65,36.76,111.37,48.86,231.94,76.74,355.84,89.93q3-3.64,5.83-7.27C1820.49,2437.75,1825.16,2336.16,1755.49,2252ZM1671,2128.61a56,56,0,0,1-11.23,27.48Z"/><path class="cls-7" d="M1734,2102.36c-16.1,12.07-36,16.71-55.81,17.35,12.31-37,29.95-67.64,81.31-77.88C1763.91,2064.78,1751.88,2088.91,1734,2102.36Z"/><path class="cls-8" d="M1413.48,2058.18c-1.93-1-1.36,3.88.69,3.22s2.42-3.55,2.45-5.84c.56-46.75,22.66-92.64,57.92-120.26,8.08,48-16.25,100.08-56.92,122Z"/><g class="cls-9"><path class="cls-8" d="M1445.38,2201.84c-1.93-1-1.37,3.88.69,3.22s2.61-3.56,2.44-5.84c-4.32-57.17,22.67-92.64,57.92-120.25,8.09,47.94,7,95-56.92,122Z"/></g><g class="cls-9"><path class="cls-8" d="M1292.84,2349c6.19,18.16,14.49,37.38,25.34,53.51q-2.65-1.46-5.29-2.93c-185.05-103.38-302.83-291.94-345.63-497.81,29.92-32.75,64.47-61.41,101.88-81.36-1.55,12.86-1.63,26-1.49,39q.57,50,5,99.91c5.32,59,32.5,118.41,62,167.43,14.94-36.84,63.22-57.21,99.62-56.43,8.34,20.17.41,44.65-13.79,60.66-13.52,15.21-32.68,25.63-50.35,34C1232.81,2206.53,1268.4,2277.32,1292.84,2349Z"/></g><g class="cls-9"><path class="cls-8" d="M1754.5,2522q-2.85,3.62-5.83,7.27c-123.9-13.19-244.47-41.07-355.84-89.93a90.13,90.13,0,0,0,20.11-7.39c-28.34-43.93-22.43-109.34,13.25-146.64,53.61,22.24,78.61,100.77,48.83,153.4,49.07,20.63,106.12,28.88,153.59,4.34s78.15-90,54.41-140.32c-23.51,3-48.24,5.89-70.14-3.76s-39.13-36.45-31-60.24c18.44,20.35,45.7,31.16,72.09,28.59-14.56-13.79-10.63-41,3.49-55.37v0c32.63-8.48,80.57,19,98,40C1825.16,2336.16,1820.49,2437.75,1754.5,2522Z"/></g><path class="cls-7" d="M1250.78,1826.42l-.45-.49c-23.35-25.57-34.4-63.37-28.83-98.61,19.47,6.26,35.77,22.89,42.54,43.41s3.82,44.42-7.67,62.37Z"/><path class="cls-8" d="M1361.42,1912.68l-1.41-19.26c-1.36-18.63-2.69-37.7,1.88-55.73s16.3-35.15,33.11-40.24c10.12,39.49-1.56,84.47-29.28,112.7l-1.25-36.83Z"/><path class="cls-8" d="M1588.84,2012.84l2.17-15.93c2.1-15.41,4.3-31.17,11.13-44.93s19.3-25.35,33.84-26.17c1.42,34.09-15.82,68.34-43.21,85.83l5.33-30.19Z"/><path class="cls-8" d="M1204.52,1992c-32.07-11.28-57.2-42.63-62.72-78.27,20.44-3.49,40.72,10.39,52.26,28.77s16.13,40.61,20.5,62.25Z"/><path class="cls-10" d="M1319.55,1958.06c13.62,5.38,35-9.77,27.63-34.56-6.64-22.46-35.63-10.23-37.76,10.15C1308,1947.7,1312.81,1955.4,1319.55,1958.06Z"/><path class="cls-10" d="M1437.9,2247.58c13.62,5.37,35-9.77,27.63-34.57-6.64-22.45-35.64-10.22-37.76,10.15C1426.3,2237.22,1431.15,2244.91,1437.9,2247.58Z"/><path class="cls-11" d="M1609.11,2405.13c13.62,5.38,35-9.77,27.63-34.56-6.64-22.46-35.64-10.23-37.76,10.15C1597.51,2394.77,1602.36,2402.47,1609.11,2405.13Z"/><path class="cls-10" d="M1253.06,2135.38c6.81,3.21,17.49-5.83,13.82-20.62-3.32-13.4-17.82-6.1-18.88,6C1247.27,2129.2,1249.69,2133.79,1253.06,2135.38Z"/><path class="cls-10" d="M1594,1928c6.81,3.21,17.49-5.83,13.82-20.62-3.32-13.4-17.82-6.1-18.88,6.05C1588.24,1921.78,1590.66,1926.37,1594,1928Z"/><path class="cls-4" d="M3010.4,2328.84l-1.73.41-71.93,17-24.37,5.77-73,17.24-24.7,5.86-74,17.49-25.07,5.94-75.06,17.75-25.42,6-76.14,18-25.78,6.1-404.57,75.71L1672.37,2616,1427.63,1054.71,1371.9,699.25c-.53-3.42,2.08-6.5,5.82-6.89l517.35-54.92,127.44-13.53L2329,591.39l120.12-12.76L2860.59,535a5.47,5.47,0,0,1,6,5l143.18,1689,.69,8.21,4.55,85.78A5.93,5.93,0,0,1,3010.4,2328.84Z"/><path class="cls-1" d="M3124.27,2261.92,1845.65,2532.73s-191.1-483.32-288.92-1166.16l-87-573.36,415.1-51.78L2484,673.67l316.57-28.53,30.65,342.72,11.91,133.1s1.84,24.25,5.73,65.64C2869.91,1410.08,2950.76,2133.43,3124.27,2261.92Z"/><g class="cls-12"><path class="cls-13" d="M2393,950.72l291.36-54.05c4.39-.81,7.55-4.73,7.07-8.76h0c-.48-4-4.42-6.64-8.81-5.83L2391,935.87c-4.57.84-7.83,4.85-7.28,9h0C2384.28,948.93,2388.43,951.56,2393,950.72Z"/></g><g class="cls-12"><path class="cls-13" d="M2396.46,976.54l290.92-54.49c4.38-.82,7.54-4.74,7.06-8.76h0c-.47-4-4.41-6.61-8.79-5.8l-291.18,54.24c-4.56.85-7.81,4.86-7.26,8.95h0C2387.76,974.77,2391.9,977.39,2396.46,976.54Z"/></g><g class="cls-12"><path class="cls-13" d="M2347.62,996.93l-4-29.22-3.06-22.41h0l-2.34-17-.72-5.24c-.77-5.65-6.56-9.33-12.89-8.18l-83.45,15.21c-6.4,1.17-11,6.75-10.15,12.46l2.87,20.15,7.72,54.16c.81,5.65,6.65,9.27,13,8.07l83-15.66C2343.9,1008.08,2348.38,1002.55,2347.62,996.93Zm-11.13,4.31-83,15.62a2.22,2.22,0,0,1-2.75-1.71l-7.14-50.27-3.42-24a2.48,2.48,0,0,1,2.15-2.62l83.4-15.25a2.23,2.23,0,0,1,2.73,1.72L2330,935.9h0l2.42,17.6h0l1.26,9.19,4.94,35.92A2.49,2.49,0,0,1,2336.49,1001.24Z"/></g><path class="cls-13" d="M2295.44,994.83c-.24,0-.49.08-.73.1a7.54,7.54,0,0,1-6.41-2.29c-9.56-10.71-22.35-19.37-22.47-19.46-3.3-2.23-3.76-6.6-1-9.76a8.56,8.56,0,0,1,10.95-1.69A157.84,157.84,0,0,1,2294,976.54c11.81-15.44,39.42-49,69-66.79,3.66-2.21,8.36-1.43,10.51,1.73s.91,7.51-2.75,9.71c-35.32,21.34-69.5,69.69-69.84,70.18A8.71,8.71,0,0,1,2295.44,994.83Z"/><g class="cls-12"><path class="cls-13" d="M2413.73,1105l288.74-56.66c4.34-.86,7.48-4.76,7-8.73h0c-.47-4-4.38-6.49-8.73-5.64l-289,56.41c-4.53.89-7.76,4.88-7.22,8.92h0C2405.1,1103.37,2409.21,1105.92,2413.73,1105Z"/></g><g class="cls-12"><path class="cls-13" d="M2417.15,1130.46l288.3-57.09c4.34-.86,7.47-4.76,7-8.72h0c-.47-4-4.37-6.47-8.71-5.61l-288.55,56.84c-4.52.89-7.75,4.88-7.2,8.91h0C2408.53,1128.81,2412.63,1131.35,2417.15,1130.46Z"/></g><g class="cls-12"><path class="cls-13" d="M2368.74,1151.13l-7-51.44L2359.4,1083l-.62-4.55c-.76-5.57-6.48-9.12-12.76-7.92l-82.66,16c-6.36,1.23-10.88,6.79-10.07,12.4l10.43,73.15c.77,5.56,6.56,9.06,12.87,7.8l82.22-16.4C2365,1162.17,2369.5,1156.66,2368.74,1151.13Zm-11,4.37-82.25,16.36a2.18,2.18,0,0,1-2.72-1.65l-10.39-73.11a2.49,2.49,0,0,1,2.13-2.62l82.63-16a2.15,2.15,0,0,1,2.69,1.66l1.44,10.39h0l2.39,17.33,6.19,45A2.47,2.47,0,0,1,2357.72,1155.5Z"/></g><path class="cls-13" d="M2317,1149c-.24,0-.48.09-.73.12a7.38,7.38,0,0,1-6.34-2.19c-9.46-10.45-22.12-18.85-22.24-18.93-3.27-2.16-3.72-6.46-1-9.62s7.58-4,10.84-1.79a153.75,153.75,0,0,1,18.08,14.39c11.71-15.35,39.09-48.72,68.38-66.64,3.63-2.22,8.29-1.51,10.41,1.58s.9,7.39-2.73,9.61c-35,21.45-68.91,69.52-69.25,70A8.68,8.68,0,0,1,2317,1149Z"/><g class="cls-12"><path class="cls-13" d="M2434.15,1257l286.16-59.19c4.3-.89,7.42-4.78,7-8.69h0c-.46-3.9-4.33-6.35-8.64-5.47l-286.4,59c-4.49.92-7.69,4.89-7.16,8.87h0C2425.6,1255.43,2429.67,1257.9,2434.15,1257Z"/></g><g class="cls-12"><path class="cls-13" d="M2437.52,1282l285.72-59.6c4.31-.9,7.41-4.79,7-8.68h0c-.46-3.9-4.33-6.34-8.63-5.44l-286,59.36c-4.48.93-7.68,4.9-7.15,8.87h0C2429,1280.48,2433,1282.94,2437.52,1282Z"/></g><g class="cls-12"><path class="cls-13" d="M2389.54,1302.94l-6.47-47.26-2.26-16.46-1.07-7.86c-.76-5.49-6.42-8.93-12.64-7.67l-81.9,16.68c-6.3,1.29-10.78,6.82-10,12.35l10.26,72c.78,5.48,6.5,8.87,12.77,7.55l81.45-17.11C2385.87,1313.87,2390.29,1308.39,2389.54,1302.94Zm-10.93,4.44-81.49,17.08a2.15,2.15,0,0,1-2.7-1.61l-10.21-72a2.48,2.48,0,0,1,2.1-2.61l81.86-16.72a2.14,2.14,0,0,1,2.69,1.61l1.87,13.62h0l2.34,17v0l5.63,40.94A2.47,2.47,0,0,1,2378.61,1307.38Z"/></g><path class="cls-13" d="M2338.73,1304.86l-.72.12a7.29,7.29,0,0,1-6.28-2.08c-9.36-10.19-21.89-18.33-22-18.41-3.24-2.09-3.67-6.33-1-9.47s7.51-4,10.74-1.89a150.47,150.47,0,0,1,17.89,14c11.61-15.28,38.76-48.49,67.79-66.5,3.6-2.23,8.21-1.59,10.31,1.43s.88,7.28-2.71,9.51c-34.7,21.55-68.31,69.34-68.65,69.82A8.83,8.83,0,0,1,2338.73,1304.86Z"/><g class="cls-12"><path class="cls-13" d="M2454.26,1406.59,2737.88,1345c4.27-.93,7.35-4.8,6.9-8.65h0c-.46-3.85-4.29-6.22-8.57-5.3l-283.85,61.41c-4.45,1-7.63,4.92-7.1,8.83h0C2445.79,1405.17,2449.82,1407.56,2454.26,1406.59Z"/></g><g class="cls-12"><path class="cls-13" d="M1847.81,1670.85,2719.64,1519c13.13-2.28,22.78-9.47,21.56-16h0c-1.21-6.59-12.84-10.08-26-7.8l-872.56,151.47c-13.66,2.37-23.59,9.72-22.17,16.41h0C1821.92,1669.74,1834.15,1673.23,1847.81,1670.85Z"/></g><g class="cls-12"><path class="cls-13" d="M1856.33,1744.06l871.83-151.82c13.13-2.29,22.78-9.48,21.56-16.06h0c-1.21-6.59-12.84-10.08-26-7.8l-872.55,151.47c-13.67,2.37-23.6,9.72-22.18,16.41h0C1830.44,1743,1842.67,1746.44,1856.33,1744.06Z"/></g><g class="cls-12"><path class="cls-13" d="M1858.91,1817.48l871.84-151.83c13.12-2.28,22.77-9.47,21.56-16.05h0c-1.22-6.59-12.85-10.08-26-7.8l-872.56,151.46c-13.67,2.38-23.6,9.73-22.17,16.42h0C1833,1816.36,1845.25,1819.86,1858.91,1817.48Z"/></g><g class="cls-12"><path class="cls-13" d="M1892.32,1889.84,2764.15,1738c13.13-2.29,22.78-9.48,21.57-16.06h0c-1.22-6.59-12.85-10.08-26-7.8l-872.56,151.47c-13.67,2.37-23.6,9.72-22.17,16.41h0C1866.43,1888.73,1878.66,1892.22,1892.32,1889.84Z"/></g><g class="cls-12"><path class="cls-13" d="M2410,1452.44l-6.38-46.54-2.21-16.21-1.06-7.75c-.75-5.4-6.35-8.73-12.52-7.4l-81.15,17.38c-6.24,1.32-10.69,6.83-9.91,12.27l9,63.27,1.08,7.63c.76,5.41,6.43,8.68,12.64,7.31l80.7-17.79a12.76,12.76,0,0,0,9.35-8A9.08,9.08,0,0,0,2410,1452.44Zm-91.58,22.26a2.07,2.07,0,0,1-2.66-1.55l-1-6.64-9.13-64.23a2.51,2.51,0,0,1,2.09-2.6l81.13-17.41a2.09,2.09,0,0,1,2.65,1.56l1.84,13.41,2.31,16.79h0l5.55,40.32a2.48,2.48,0,0,1-2.06,2.57l-6.57,1.45Z"/></g><path class="cls-13" d="M2359.68,1454.89a6,6,0,0,1-.72.13,7.12,7.12,0,0,1-6.22-2c-9.26-9.94-21.67-17.82-21.79-17.9-3.21-2-3.63-6.2-1-9.33s7.45-4,10.65-2a147.56,147.56,0,0,1,17.71,13.58c11.52-15.19,38.44-48.26,67.22-66.35,3.56-2.24,8.13-1.66,10.21,1.3s.87,7.17-2.69,9.41c-34.4,21.65-67.75,69.16-68.08,69.63A8.8,8.8,0,0,1,2359.68,1454.89Z"/><g class="cls-14"><path class="cls-13" d="M2532.33,2202.06c-28-1.84-54.8-11.39-76.16-27.32-25.2-18.8-40.51-44.34-44.16-73.84-4.35-35.18,3.58-73.71,23-111.35,18.06-35.07,45.64-67.81,77.57-92.14,28.2-21.48,59-36,89.09-41.88,33.25-6.54,64.33-2.81,92.38,11a182.49,182.49,0,0,1,81.92,81.33c17,33.87,20.46,69.57,9.85,100.66-10.39,30.39-33.55,58.13-73,87.4-41.48,30.76-105.22,67.39-172.67,66.42C2537.5,2202.33,2534.9,2202.23,2532.33,2202.06Zm109.88-331.51c-38.5-3.62-80.49,10.16-120.18,40.44-62.83,47.92-100,122.64-92.33,185.36,5.86,47.74,51.19,84.71,106.38,88.42,2.31.15,4.63.25,7,.28,62.29,1,122-33.44,161.11-62.37,35.91-26.59,56.76-51.17,65.73-77.43,12.25-35.91-.57-70.36-9.34-87.77a168.34,168.34,0,0,0-75.71-75A122.08,122.08,0,0,0,2642.21,1870.55Z"/></g><path class="cls-6" d="M2484.05,673.67l7.49,72.41a6.18,6.18,0,0,1-5.48,6.68L1902.26,822a6.58,6.58,0,0,1-7.43-5.4l-10-75.2Z"/><path class="cls-13" d="M1920.75,788.12l538.31-62.71a5.43,5.43,0,0,0,4.83-5.88l-15.84-151.26a5.41,5.41,0,0,0-6-4.76l-543.28,57.06a5.56,5.56,0,0,0-5.12,6.14l20.58,156.65A5.78,5.78,0,0,0,1920.75,788.12Z"/><path class="cls-13" d="M2329,591.39l-1.76-15.82h0l-5-45.29c-3.3-29.9-30.9-51.77-61.72-48.75l-195.05,19.13c-31.81,3.13-54.61,30.45-50.78,61l5.78,46.16v0l2,16.11,2.54,20.34,306.16-32.93Zm-235.49-29.6L2247.78,546a10.77,10.77,0,0,1,7.73,2.22,10.12,10.12,0,0,1-5.42,18.13l-154.06,16a11.19,11.19,0,0,1-8-2.23,10.18,10.18,0,0,1,5.44-18.32Z"/><path class="cls-3" d="M1971.84,1416.89a23.15,23.15,0,0,1-9.35.82c-85.81-9.86-135.94-45-162.87-72.8-13.17-13.59-22.11-29-28.13-48.35l-45.93-148.07a22.3,22.3,0,0,1,3.78-20.39,23.08,23.08,0,0,1,19.09-8.73,113.1,113.1,0,0,0,37.47-4.86c39.74-12,66-41.65,66.26-42a23.21,23.21,0,0,1,23.61-7.07c.32.09,39,10.25,78.68-1.71a112.2,112.2,0,0,0,33.83-16.6,23.25,23.25,0,0,1,20.78-3.27,22.73,22.73,0,0,1,14.7,14.82l45.94,148.08c6,19.4,7.31,37,4.11,55.56-6.58,37.87-28.18,94.63-93.75,150.06A23,23,0,0,1,1971.84,1416.89Z"/><path class="cls-13" d="M1974.27,1422l-.78.25a29,29,0,0,1-11.65,1c-87.49-10.06-138.72-46.06-166.29-74.49-13.81-14.25-23.17-30.31-29.45-50.56l-45.93-148.07a27.83,27.83,0,0,1,4.71-25.41,28.79,28.79,0,0,1,23.77-10.87,107.68,107.68,0,0,0,35.6-4.63c37.83-11.38,63.4-40,63.66-40.28a28.94,28.94,0,0,1,29.38-8.77c.34.09,37.61,9.73,75.51-1.68a106.68,106.68,0,0,0,32.13-15.75,29,29,0,0,1,25.89-4.08,28.36,28.36,0,0,1,18.33,18.47l45.94,148.07c6.27,20.25,7.64,38.72,4.28,58.12-6.74,38.77-28.8,96.83-95.64,153.34A28.35,28.35,0,0,1,1974.27,1422ZM1741.94,1125.8a17.23,17.23,0,0,0-8.14,5.7,16.79,16.79,0,0,0-2.85,15.36l45.93,148.08c5.75,18.53,14.27,33.19,26.82,46.14,26.29,27.1,75.29,61.45,159.45,71.12a17.36,17.36,0,0,0,13.24-4c64.29-54.36,85.45-109.82,91.87-146.79,3-17.63,1.79-34.47-4-53l-45.93-148.07a17.15,17.15,0,0,0-11.08-11.18,17.56,17.56,0,0,0-15.67,2.48,118,118,0,0,1-35.52,17.43c-41.11,12.37-81.46,1.86-81.85,1.75a17.53,17.53,0,0,0-17.81,5.34c-1.14,1.29-27.91,31.32-68.9,43.64a118.81,118.81,0,0,1-39.36,5.1A17.48,17.48,0,0,0,1741.94,1125.8Z"/><path class="cls-13" d="M1932,1312.63a37,37,0,0,1-26.55-2l-90.25-42.81a35.78,35.78,0,0,1-17.09-48.06,36.81,36.81,0,0,1,48.81-16.83l60.07,28.49L2030.49,1022a36.86,36.86,0,0,1,50.09-12.57,35.7,35.7,0,0,1,12.78,49.34l-140.57,237.77A36.44,36.44,0,0,1,1932,1312.63Z"/><path class="cls-2" d="M2848.9,1197.35q-345.69-36.51-689.87-85.8c221.35-60.82,444.65-103.11,672.23-116l11.91,135.13S2845,1155.33,2848.9,1197.35Z"/><path class="cls-8" d="M3193.35,2646l-374.45-2.18-397-2.31c-25-3-50.78-6.35-72.88-20a111.4,111.4,0,0,1-26.8-22.69c-41.46-49.09-18.18-120.72,37.77-154,48.69-29,117.38-19.85,137.82,47.75q.45-3.62,1.16-7.16c6-30.37,25.5-55.81,46.7-76.2,25.07-24.11,54.58-43.88,86.23-53.45a140.12,140.12,0,0,1,42.4-6.2c69.74.92,95.89,53.65,120.61,117.94,23-27.31,47.17-46.26,81.65-55.86,71.74-20,149-14.37,218.18,15.83,42.83,18.71,87.24,55.22,88.81,106.76.93,31.17.77,23.05,10.68,52.24C3204.86,2617.79,3192.33,2612.59,3193.35,2646Z"/><g class="cls-14"><path class="cls-15" d="M2504.87,2581.31c-44,6-87.12-28.54-130.83-20.44-21.46,4-39.27,18.39-51.81,38-41.46-49.09-18.18-120.72,37.77-154,48.69-29,117.38-19.85,137.82,47.75q.45-3.62,1.16-7.16C2494.66,2516.23,2499.25,2550.09,2504.87,2581.31Z"/></g><g class="cls-14"><path class="cls-15" d="M3193.35,2646l-374.45-2.18c27.74-22.78,46.6-59.74,47.07-98.64.21-17.65-3.34-36.22-13.84-49.41-25.06-31.51-65.71-7.3-87.71,14.47-2.46-78.15-63.19-148.82-132.51-154.49a140.12,140.12,0,0,1,42.4-6.2c69.74.92,95.89,53.65,120.61,117.94,23-27.31,47.17-46.26,81.65-55.86,71.74-20,149-14.37,218.18,15.83,42.83,18.71,87.24,55.22,88.81,106.76.93,31.17.77,23.05,10.68,52.24C3204.86,2617.79,3192.33,2612.59,3193.35,2646Z"/></g><path class="cls-16" d="M3228.68,2535.8l-66.16-6.2s1.14,42.74-81,57.94c-28.1,5.2-59.08,15-63.66,50.37a4.61,4.61,0,0,0,.45,3.39,4,4,0,0,0,2.75,1.21c18.94,2.83,35.4,3.61,54.81,3.61h157.37Z"/><path class="cls-17" d="M3354.67,1903.06c-2.1,18.43-4.76,41.44-7.58,66.76-6.7,60.28-14.25,133.61-17.09,189.19-.66,13-1.07,25-1.13,35.69q0,4.08,0,7.87.12,12.58.13,25.17,0,9.11,0,18.22c-.46,96.18-5.27,192.26-8.95,288.23q-.51,12.84-1,25.69a8,8,0,0,1-1.13,4.65c-1.16,1.56-3.24,2-5.14,2.42l-9.71,1.94c-4.5.9-40.82-9.3-74.79-18.24-10.46-2.75-20.7-5.37-29.71-7.51-17.74-4.23-30.74-6.59-31.42-4.33a39.44,39.44,0,0,0,1.24-10.42c1.28-77.29-103.28-416.67-107.32-465.28-2.47-29.55,18.59-103.88,37.09-163l.63-2c4-12.71,7.83-24.67,11.29-35.27,11.53,9.11,28.73,20.14,53.56,30.65,4.65,2,9.55,3.92,14.75,5.83,1.11.41,2.23.82,3.36,1.22,1.58.57,3.19,1.11,4.81,1.62C3243.64,1920.35,3323.88,1908.68,3354.67,1903.06Z"/><path class="cls-18" d="M3198.76,2543.18q2.07.48,4.23,1Z"/><path class="cls-11" d="M3289.4,1161.06a118.7,118.7,0,0,1-12-.57l1.94-18.83c67.73,7,242.35-61.45,294.25-82.59a16.27,16.27,0,0,0,10.16-15.12v-54.4h18.93V1044a35.11,35.11,0,0,1-21.95,32.65C3516.53,1102.76,3364.88,1161.06,3289.4,1161.06Z"/><path class="cls-10" d="M3673.29,998.58a17.86,17.86,0,0,1-2.35,3.95c-.23.28-.46.56-.71.82-2.82,3-20,8.17-49.32,14.65l-4.95,1.08-.33.07c-1.8.4-3.64.79-5.52,1.19s-3.85.82-5.77,1.21q-8.84,1.83-18.73,3.77-5.07,1-10.16,2l-3.5.67-9.69,1.82-5.28,1-4.08.74c-83.73,15.23-206.94,33.81-352.65,50.43q-8.2.94-16.39,1.85h0l-9.94,1.1q-31.24,3.45-62.51,6.63l-7,.71-11,1.1-10.23,1-1.91.18q-2.6.27-5.22.51c-4.27.41-8.55.83-12.83,1.23-50.82,4.83-103.44,9.28-157.31,13.2q-36.29,2.64-73.29,4.93l-7.63.47c-187.53,11.36-386.19,15.35-573.34,4.91l-5.93-.33q-6.51-.36-13-.77l-1.32-.08-78.88-32.51,73.58-39.2,8.31-1.38,15.34-2.56c72.77-12.06,304.11-49.82,562.47-85.88q15-2.09,30-4.16,32.82-4.54,66-9,26.07-3.48,52.26-6.91h0l28.3-3.67c51.82-6.66,103.54-13,154.16-18.88,67.57-7.81,133.2-14.72,194.5-20.21,109.05-9.79,204.43-15.15,272.81-13.3,14.57.39,27.91,1.12,39.9,2.18,0,0,20.55,49.63,25,86.26C3676.62,981.13,3676.39,991.56,3673.29,998.58Z"/><path class="cls-19" d="M3673.29,998.58c-.74,1.33-1.53,2.65-2.35,3.95-.23.28-.46.56-.71.82-2.82,3-20,8.17-49.32,14.65-1.64.36-3.29.73-4.95,1.08l-.33.07c-1.8.4-3.64.79-5.52,1.19s-3.85.82-5.77,1.21q-9.35,2-18.73,3.77-5.07,1-10.16,2l-3.5.67-9.69,1.82-5.28,1-4.08.74q-6.68,1.21-13.68,2.45c-109.19,19.52-219.3,34.26-329.49,46.89l-9.48,1.09q-8.2.94-16.39,1.85h0l-9.94,1.1q-31.24,3.45-62.51,6.63l-7,.71-11,1.1-10.23,1-1.91.18q-2.6.27-5.22.51c-4.27.41-8.55.83-12.83,1.23-50.82,4.83-103.44,9.28-157.31,13.2q-36.29,2.64-73.29,4.93l-7.63.47c-187.53,11.36-386.19,15.35-573.34,4.91,14.73-2.11,29.81-2.84,44.63-3.64a2726.5,2726.5,0,0,0,333.24-38.52c39.73-7.09,79.57-15.15,117-30.29,20.64-8.35,39.27-19.07,45.5-40.81,5.46-19.07,1.39-34,20.22-49.45,10-8.18,20.12-8.44,30-4.16,17.59,7.61,34.42,29.61,48.1,47.26,1.44,1.86,3.07,3.84,5.37,4.32,1.34.29,6.16-33,12.55-60.57,17-2.27,35.1-6.67,52.26-6.91h0c21.64-.29,25.09,4.1,44.21,8.32,33.59,7.42,64.08-1.31,95.49-13.83l42.76-17c67.57-7.81,133.2-14.72,194.5-20.21,1.62,3.8,3.25,7.6,5.08,11.2,27.38,53.91,98.79,64.32,159.24,65.79q86.7,2.1,173.42-1.85C3676.62,981.13,3676.39,991.56,3673.29,998.58Z"/><path class="cls-11" d="M3670.24,1003.35c-2.83,3-20,8.17-49.32,14.65a543.88,543.88,0,0,0-10.68-137.09c14.57.4,27.92,1.13,39.9,2.2C3650.14,883.11,3690.77,981.22,3670.24,1003.35Z"/><path class="cls-11" d="M2249.69,1042.92c0,25.21-1.61,50.89-4,76.5q-6.51-.36-13-.77.4-36.59,1.69-73.17Z"/><path class="cls-18" d="M3320,2534.19q-.51,12.84-1,25.69a8,8,0,0,1-1.13,4.65c-1.16,1.56-3.24,2-5.14,2.42l-9.71,1.94c-4.5.9-40.82-9.3-74.79-18.24l-9.7-2.53-2.14-.54-4.6-1.18-1.13-.28-.49-.12-1.76-.45-2.23-.55c-1.09-.28-2.18-.55-3.25-.8q-2.16-.54-4.23-1l-.18,0c-17.74-4.23-30.74-6.59-31.42-4.33a39.44,39.44,0,0,0,1.24-10.42,323.45,323.45,0,0,0,27.35-44.33c20.07-39.32,9.78-103.37,5.14-146.62-5.53-51.56-17.94-102.34-33.79-151.63-20.84-64.81-11.53-131.73-28.62-197.8-8-31-23-60.82-39.68-89.89,4-12.71,7.83-24.67,11.29-35.27,11.53,9.11,28.73,20.14,53.56,30.65,2.15,45.15,11.64,92,14.4,114.67,11.84,97.26,24.94,192.34,41.52,289.22,8.67,50.65,16.36,103.22,22.71,153.55.59,4.65-.91,21.54-3.78,42.24l4.6-5.84c-1.34,15.67,11.74,29,25.65,36.34A95.44,95.44,0,0,0,3320,2534.19Z"/><path class="cls-20" d="M3209.55,2576.75a5.4,5.4,0,0,0,3.53,1.3,6.81,6.81,0,0,0,3.57-1.15,12.77,12.77,0,0,0,2.85-2.5,17.37,17.37,0,0,0,1.2-1.49c.4-.5.74-1,1.09-1.57a65.63,65.63,0,0,0,6.32-14,225.6,225.6,0,0,0,7.57-30c.24-1.26.39-2.52.59-3.78s.41-2.5.52-3.78c.2-2.55.5-5.09.65-7.64l.33-7.69.06-7.72c-.07-10.29-.51-20.59-1.22-30.89-1.36-20.59-3.53-41.14-6.05-61.65s-5.34-41-8.49-61.44c-6.37-40.84-13.25-81.66-21.65-122.08-2.12-10.09-4.26-20.19-6.68-30.13-.64-2.45-1.22-5-1.91-7.37l-1-3.69-1-4c-.34-1.33-.57-2.62-.86-3.93s-.59-2.63-.8-3.92c-.46-2.6-1-5.2-1.37-7.79-1.7-10.37-3-20.71-4.23-31s-2.29-20.68-3.28-31c-7.46-82.72-11.93-165.48-15-248.37-3.23-82.79-6.06-165.61-7.76-248.48,6.41,82.66,11.71,165.36,16.6,248.09l3.66,62q1.9,31,4.06,62c2.8,41.3,5.74,82.6,9.71,123.73.95,10.29,2,20.56,3.13,30.81s2.42,20.46,4,30.54c.38,2.54.86,5,1.29,7.52.2,1.26.49,2.46.74,3.7s.48,2.47.78,3.65l.9,3.54,1,3.8c.73,2.58,1.3,5.12,2,7.68,2.45,10.2,4.58,20.37,6.56,30.59,4,20.41,7.53,40.86,10.86,61.35,1.64,10.25,3.28,20.5,4.76,30.77s2.91,20.55,4.26,30.84c5.41,41.16,9.79,82.49,11.34,124.06.32,10.4.38,20.81.06,31.23l-.36,7.82-.63,7.82c-.25,2.6-.64,5.21-1,7.8-.17,1.3-.48,2.6-.72,3.89s-.49,2.6-.79,3.87a224.79,224.79,0,0,1-9,29.88,66.66,66.66,0,0,1-7.22,13.89c-.39.52-.77,1.06-1.2,1.55a16.8,16.8,0,0,1-1.33,1.47,13.12,13.12,0,0,1-3.1,2.43,7,7,0,0,1-3.79,1A5.53,5.53,0,0,1,3209.55,2576.75Z"/><path class="cls-16" d="M3392,1772.22c-25,60.74-24.65,128.33-24.65,128.33s-4.67,1.06-12.7,2.51c-31.66,5.78-115.63,18-172.91-2.51-34.84-12.46-57.53-26.52-71.67-37.7-15-11.87-20.36-20.48-20.36-20.48s27.81-77.86,40-222.45c1.65-19.61,3-37.5,4.2-53.77,7.41-103.58,5.79-141.3,5.79-141.3l41.67-17.11,179.17-73.58s-11.22,17.25,1.51,72.56c5.19,22.61,14.39,51.57,30,88.3.62,1.46,1.22,2.9,1.82,4.35C3445.1,1623.7,3416.71,1712.17,3392,1772.22Z"/><path class="cls-3" d="M3132.29,977c-6-37.84,97.75-13.14,97.75-13.14l1.68,11.08c-3,7.41-6.75,13.76-11.26,18.63-23.18,25-59.42,40.07-90.76,41.2C3132.84,1014.4,3134.77,992.54,3132.29,977Z"/><path class="cls-3" d="M3139.69,933.83l-58.87-3.06s.2,22.51,26,24.6C3138.39,957.93,3139.69,933.83,3139.69,933.83Z"/><path class="cls-3" d="M3108,958.38l3.75,15.08c2.74,11,5.37,23.23.15,33.32a19.45,19.45,0,0,1-8.51,8.65,33.53,33.53,0,0,0,21.9,15.69c23.61,4.82,33.33-17.11,31.19-37.64a44.74,44.74,0,0,0-4.89-16.93c-6.94-12.6-21.74-19.51-36.11-19.8"/><path d="M3049.43,820.48a58.56,58.56,0,0,0,.26-6.58c-.16-9.89,0-20.23,3.11-29.72,1.16-3.56,3.56-7.45,7.3-7.54,2.55-.06,4.74,1.71,6.5,3.56,4.21,4.41,5.88,11.13,10.11,15.19s10.94,5.1,15.65,9c10.18,8.37,14.29,21.89,16.2,34.46,4.43,29.17-9,62.24,17.21,84.38,10.31,8.73,23,14.45,32.79,23.75,18.56,17.6,23.92,45.19,23.13,70.75-1.64,53.37-26.79,105.6-67.49,140.16-7.92,6.72-17.59,13.13-27.87,11.64-5.22-.76-9.93-3.51-14.24-6.55-21.11-14.92-41.49-35.84-16-58.37,29.11-25.74,70.2-47,35.89-90-27.8-34.87-45.75-57.4-28.7-102.61,2.91-7.72,3.63-16.65.07-24.1-2.89-6-8.24-10.54-11.88-16.18-5.4-8.35-6.72-18.81-5.62-28.69C3046.73,834.85,3048.7,828.12,3049.43,820.48Z"/><path class="cls-17" d="M3265.92,1022.1q-12.43,3-24.67,6.88a369.19,369.19,0,0,0-40.78,15.69q-16.41,7.47-32,16.52c6.33-23.5-2.63-47.66-13.53-70-1.79-3.68-3.63-7.31-5.48-10.89-.68-1.31-1.48-2.74-2.88-3.24a6,6,0,0,0-3.33.09l-1.44.31c-2.05.45-4.41.91-6.94,1.39h-.07c-18.52,3.43-47.56,6.52-58.54-6.66-2.57-3.07-8.14-27.36-9.75-42.22a62.5,62.5,0,0,1-.45-7.29,5.54,5.54,0,0,0-1.23-3.75c-4.91-6-22.88-3.37-26-10.9a3.24,3.24,0,0,1-.16-.47c-.85-2.73.13-6.7,4.1-12.74,8.69-13.14,14.28-28.67,19.71-43.41,3.09-8.3,1-16.45,1.42-25.06.69-12.84,1.32-25.75,2.54-38.6.05-.72.13-1.42.18-2.13s.13-1.22.18-1.8c0-.11,0-.21,0-.3.06-.69.12-1.37.19-2a1,1,0,0,0,0-.18c.07-.6.12-1.22.16-1.8.11-1.4.24-2.76.35-4,.09-1.08.17-2.11.26-3.09,0-.55.08-1.07.12-1.55s.08-.86.1-1.27.08-1.05.11-1.52.08-1.12.12-1.62.05-.77.08-1.11,0-.5.05-.72,0-.47,0-.66,0-.49.05-.71a4.68,4.68,0,0,1,.63-1.93.59.59,0,0,1,.12-.22l.06-.07c.08-.1.15-.2.23-.29s.26-.36.4-.54c.31-.43.67-.84,1-1.25a17.47,17.47,0,0,1,1.31-1.4c.36-.38.77-.74,1.15-1.1l.41-.35c.34-.27.67-.55,1-.82.17-.14.34-.26.5-.37s.58-.39.84-.58.42-.29.62-.4c.38-.25.78-.49,1.18-.7a2.26,2.26,0,0,0,.37-.22c.43-.2.89-.45,1.35-.65.08-.05.18-.08.26-.13.51-.23,1-.45,1.56-.64a.4.4,0,0,1,.15-.07c.35-.13.71-.26,1.09-.38s.63-.21,1-.3a14.44,14.44,0,0,1,1.56-.43c.56-.13,1.13-.27,1.7-.37a.64.64,0,0,1,.28-.07c.65-.11,1.26-.23,1.93-.31s1.37-.17,2.06-.23l1.48-.1c8-.46,17.11,1.08,26.9,4,1.88.54,3.76,1.16,5.66,1.8a215.69,215.69,0,0,1,23.38,9.79c2.28,1.09,4.55,2.23,6.83,3.4,1.16.58,2.29,1.16,3.45,1.8,1.89,1,3.75,2,5.63,3,11.84,6.5,23.56,13.72,34.47,20.89l.69.47c24.63,16.61,46.11,53.45,50.4,82.4.11.74.2,1.49.27,2.23,2.38,22-8.11,42.19-8.45,63.57a80.67,80.67,0,0,0,.5,10.27v0c1.78,15.87,8,30.3,14.13,44.82C3259.93,1005.81,3263.3,1013.81,3265.92,1022.1Z"/><g class="cls-21"><path class="cls-22" d="M3243,1059.43c0,18.34-52.93,50.71-54.38,33.79-.19-2.32.84-4.54,1.84-6.64,5.06-10.56,12.21-21,12.16-32.85,0-9.47-6.65-17.74-5.5-27.52,2.07-17.47,13.43-29.23,10.76-48.68a5.82,5.82,0,0,0-1.25-3.35c-1.24-1.28-3.29-1.2-5-.88-12.11,2.24-23.47,14.57-35.72,14.63-11.63.06-13.7-8.77-23.72-10.76,7.86-7,17.68-17,22-26.87,6.3-14.38,6.63-30.6,4.47-45.92-2.37-16.93-10-34.23-24.76-42.88-8.13-4.77-17.62-6.5-26.46-9.82-12.83-4.83-26.84-13-31.47-25.75-5.21-14.4-8.27-26.46-19.49-38.16.05-.72.13-1.42.19-2.13s.12-1.22.17-1.81c0-.1,0-.2,0-.29,0-.69.11-1.38.17-2a.52.52,0,0,0,0-.18c.06-.6.12-1.21.16-1.8.11-1.4.24-2.75.35-4,.1-1.08.18-2.11.25-3.09.05-.55.08-1.06.13-1.55s.07-.86.1-1.27.07-1.05.11-1.52.08-1.12.12-1.61.06-.78.08-1.11,0-.52.05-.73a5.73,5.73,0,0,0,0-.66c0-.28,0-.49.05-.72.06-.74.08-1.13.08-1.13.18-.28.36-.54.55-.79l.19-.29a3.15,3.15,0,0,1,.22-.29,6.25,6.25,0,0,1,.4-.54c.31-.43.67-.84,1-1.25a17.21,17.21,0,0,1,1.3-1.39c.37-.39.77-.75,1.16-1.11l.41-.35c.34-.27.67-.55,1-.83.16-.13.34-.25.5-.36l.84-.57a7.3,7.3,0,0,1,.62-.41c.39-.25.78-.48,1.19-.69.12-.08.24-.14.35-.23.44-.21.89-.44,1.36-.65.08-.05.18-.08.26-.12a16.7,16.7,0,0,1,1.57-.65c.05,0,.1,0,.13-.07l1.1-.39a9.72,9.72,0,0,1,1-.29c.51-.17,1-.31,1.56-.43s1.13-.28,1.7-.38a1,1,0,0,1,.28,0c.64-.12,1.27-.24,1.94-.32s1.35-.17,2-.23c.49,0,1-.08,1.5-.1,8-.46,17.1,1.08,26.9,4,1.87.53,3.75,1.16,5.65,1.8a217.71,217.71,0,0,1,23.38,9.79c2.28,1.09,4.55,2.23,6.83,3.39,1.16.59,2.29,1.17,3.45,1.81,1.89,1,3.75,2,5.63,3,11.84,6.5,23.55,13.73,34.47,20.89.24.16.45.29.69.47,24.63,16.61,46.12,53.45,50.4,82.4.11.74.2,1.49.28,2.22,2.56,23.13-7.75,46.42-7.94,69.41,0,1.48,0,3,0,4.46,0,16.94.71,33.86.9,50.79.09,7.54-1.24,16.39-2.08,25.17-.86,9-1.18,18,1.1,25.44a5.06,5.06,0,0,1,.15.59,28,28,0,0,1,.46,3.58A7.51,7.51,0,0,1,3243,1059.43Z"/></g><path d="M3119.35,917.92c-1.14.48-4.93,11.42-6.1,13.19-.38.58-.79,1.16-1.21,1.74-.3.41-.61.82-.92,1.22-4.86,6.26-11.56,11.74-19.7,12.68a7.5,7.5,0,0,1-5.79-1.85,13.24,13.24,0,0,1-1.71-1.72,19.53,19.53,0,0,1-2.05-3.07c-3.2-5.82-4.32-13.31-3.7-13.33A114.26,114.26,0,0,0,3119.35,917.92Z"/><path d="M3120.14,850.36a54.56,54.56,0,0,0-18.62-18,37,37,0,0,0-17.91-4.79c-2.38,0-7.5-.84-7.54,3.68,0,4,4.38,4.61,6.81,4.88,4,.44,8.19.89,12.2,1.67A50.28,50.28,0,0,1,3120.14,850.36Z"/><ellipse class="cls-23" cx="3085.29" cy="861.9" rx="8.09" ry="6.06" transform="translate(2174.55 3933.13) rotate(-89.09)"/><path d="M3101.59,858.72a28.53,28.53,0,0,0-2.69-2.41c-.92-.74-1.87-1.43-2.83-2.06a24,24,0,0,0-6-2.87,21.7,21.7,0,0,0-3.18-.78,6.9,6.9,0,0,0-3.27.28,9.52,9.52,0,0,0-3.14,1.77,11.06,11.06,0,0,0-2.57,3.28l.13.34c1.06-.37,2-.71,3-.95a20.85,20.85,0,0,1,2.88-.48l2.88-.28a12.13,12.13,0,0,1,2.95,0,19.62,19.62,0,0,1,3,.62,26.13,26.13,0,0,1,2.95,1,34,34,0,0,1,5.81,2.93Z"/><path class="cls-23" d="M3378.25,1050c-1.71,5.11-1.14,10.65-.83,16s.3,11.07-2.37,15.76c-4.45,7.83-12,5.26-19.17,5.48-.35,0-.71,0-1.06,0a6.35,6.35,0,0,1-2.78-.44c-2.49-.95-4.45-3.31-3.79-5.82a20.56,20.56,0,0,1-4.21,8.31c-7.65,8.91-22.22,8.63-33.83,9-9.89.28-20.62-2.51-28.26-8.39a25.86,25.86,0,0,1-9.48-13.63c-1.85-6.72-.74-14.1-2-20.87-.13-.67-.28-1.33-.46-2a23.08,23.08,0,0,0-1.08-3c-4.78-10.68-18.12-14.79-24.8-24.41a29.3,29.3,0,0,1-4.84-14.67c-.83-10.15,1.73-21.36,1.61-31.81,0-1.9-.13-3.77-.33-5.63-1.69-16.17-9.67-31.17-18.28-45.37-1.16-1.93-2.34-3.84-3.51-5.73,5.23,9.22-13.27,21.76-18.59,27.31-8.74,9.12-15.27,18.06-15.32,31.28,0,7,4,14.8,11.09,14.81-8.63,2-17.83-3.18-22.51-10.73s-5.57-16.86-4.9-25.71a83.15,83.15,0,0,1,9.23-32.25c3.58-6.83,8.17-13.32,9.88-20.85,1.85-8.24,0-16.85-2.43-24.92a84.1,84.1,0,0,0-5.69-12.9c-9.38-18.28-24.85-43.6-18-58.26a127.2,127.2,0,0,0-8.95,26.22c-1,.11-2,.19-2.93.22-12.86.53-23.66-5-35.89-8.16-7.73-2-15.54-5.28-20.5-11.52-7-8.91-7.22-51.45-25.22-46.55a47,47,0,0,1-1.33,22.32c-4.51,14.43-15.53,28-27.41,36.35,3.82-6.84,5-14.7,4.75-22.59a78.83,78.83,0,0,0-1.29-11.63c-2.15-11.51-6.13-22.64-7.73-34.24-.69-5.11-.9-10.43.62-15.36,1.73-5.61,5.61-10.34,9.9-14.35,10.15-9.52,25.78-3.63,36.32-12.94,12.41-11,24.72-17.93,41.29-21,18-3.41,38.21-4.19,56.52-4.23,18,0,35.65,3.78,51.36,12.75a75.18,75.18,0,0,1,22.45,19.08c3.38,4.42,5.16,10,7.47,15.06a30.85,30.85,0,0,0,4.87,7.95,27.23,27.23,0,0,0,7.61,5.77c10.48,5.65,22.94,6.62,23.42,22.79A55.69,55.69,0,0,1,3295.3,790c-1.42,6.47-3.39,12.92-4.05,19.5-1.49,14.66,4.27,29.62,14.41,40.25a48.58,48.58,0,0,0,17.62,11.9c8.1,3.13,16.91,4.12,25,7.27,7.79,3,15.33,8.89,17.08,17,.07.31.13.61.18.91.86,5.38-.92,10.8-3,15.83-4.77,11.72-11.15,22.91-14.06,35.23-5.4,22.79,5.2,32.37,18.38,43.6,3.71,3.16,7.64,6.46,11.46,10.22,7.09,7,13.09,17.74,13.62,27.83C3392.68,1032.89,3382.11,1038.45,3378.25,1050Z"/><g class="cls-24"><path d="M3067.87,771.19c5.23,21.25-10.67,45.76-28.59,58.3,3.83-6.84,5-14.7,4.77-22.59,3.83-6.67,6.71-13.95,7.4-21.58.84-9.21-1.53-18.49-.69-27.71.15-1.66.69-3.66,2.3-4.11,2.35-.65,3-1.19,3.42,1.22,5.14-.82,9.09,4.25,11.78,8.71l4.39,7.26C3069.22,769.22,3067.87,771.19,3067.87,771.19Z"/></g><g class="cls-25"><path class="cls-26" d="M3133.9,1566.15c7.41-103.58,5.79-141.3,5.79-141.3l41.67-17.11a337.75,337.75,0,0,1,67.56-14.83c38-4.24,78.28-.83,113.12,13.81,5.19,22.61,14.39,51.57,30,88.3.62,1.46,1.22,2.9,1.82,4.35A800.46,800.46,0,0,0,3133.9,1566.15Z"/></g><path class="cls-27" d="M3456.92,1376.38a95.87,95.87,0,0,1-22.57,37.43c-33.33,35-93.23,53.84-154.4,62.53-13.46,1.92-27,3.33-40.29,4.33a640.63,640.63,0,0,1-99.59-.18c-37.4-3.24-61.79-9.89-59.55-16.74a2.4,2.4,0,0,1,.3-.68c14.61-25.1,22.55-120.92,22.55-120.92s-22,9.36-48,17.48c-29.12,9.12-63.18,16.68-76.46,7.62-25.1-17.11-165.4-191.65-143.73-197.54a56.46,56.46,0,0,0,11.77-5c14.37-7.81,31.37-21.65,42.35-30,5.48-4.17,9.46-7,10.9-7,.89,0,3.63,2.54,7.69,6.83,19.21,20.31,67.88,79.89,88.13,93.55,24.53,16.54,7.41,4,21.68,4.56a51.27,51.27,0,0,0,24.14-5.29c16.71-7.91,31-23.21,43.69-36,2.06-2.09,4.09-4.12,6.06-6,33.84-32.83,64.74-73.91,72.54-121.34.88-5.38-.41-17.4,1.87-21.49a6.11,6.11,0,0,1,3.2-2.25c2.61-1.09-5.82-4.3-3.21-5.39,23.06,2.09,51.5-11.64,73.26-23.49a29.3,29.3,0,0,0,4.84,14.67c6.68,9.62,20,13.73,24.8,24.41a23.08,23.08,0,0,1,1.08,3c2,7.29.44,15.47,2.47,22.86,4.18,15.16,22,22.46,37.74,22,14.44-.41,33.48.12,38-17.27-.66,2.51,1.3,4.87,3.79,5.82,4.39,11.06,8.21,22.54,11.56,34.11,7.07,24.42,12,49.28,15.82,71.67,6,35.68,9,65.1,12.6,76.49C3403,1303.93,3456.92,1376.38,3456.92,1376.38Z"/><path class="cls-28" d="M3239.67,1313.52c-22.88,55.93-29.37,114.55,0,167.15a640.63,640.63,0,0,1-99.59-.18l-.15,0c-6.59-.71-62.12-7.31-59.4-16.72a2.67,2.67,0,0,1,.3-.68c14.61-25.1,22.55-120.92,22.55-120.92s-22,9.36-48,17.48c65.5-31.35,131.88-66.62,199.41-92.62C3256.61,1266.31,3241.09,1310.06,3239.67,1313.52Z"/><path class="cls-29" d="M3097.48,1343.86c11.82-6.84,23.81-13.1,35.8-19.34s24-12.34,36-18.42,24.1-12.11,36.22-18.08,24.3-11.87,36.83-17.3a347.33,347.33,0,0,1-33.6,23.16q-17.4,10.63-35.62,19.81t-37.1,16.88A347.69,347.69,0,0,1,3097.48,1343.86Z"/><path class="cls-28" d="M3363.6,1121c-23,5.94-64.7.4-84.4-14.27-12.78-9.51-36.38-60-56.4-53.63-1.69.53-49.89,16.25-49.89,10.64-1.06,21.82-8.73,44.8-20.38,63.63-15,24.24-43.15,47-67,64,2.06-2.09,4.09-4.12,6.06-6,33.84-32.83,64.74-73.91,72.54-121.34.88-5.38-.41-17.4,1.87-21.49a6.11,6.11,0,0,1,3.2-2.25c2.61-1.09-5.82-4.3-3.21-5.39,23.06,2.09,51.5-11.64,73.26-23.49a29.3,29.3,0,0,0,4.84,14.67c6.68,9.62,20,13.73,24.8,24.41a23.08,23.08,0,0,1,1.08,3c2,7.29.44,15.47,2.47,22.86,4.18,15.16,22,22.46,37.74,22,14.44-.41,33.48.12,38-17.27-.66,2.51,1.3,4.87,3.79,5.82C3356.43,1097.93,3360.25,1109.41,3363.6,1121Z"/><path class="cls-17" d="M2888.5,1074.43a122.92,122.92,0,0,0-3.24,37.51,33.47,33.47,0,0,0,.55,4c1.05,5.51,3.18,13,3.52,18.71-11,8.35-28,22.19-42.35,30-6.42-5.23-14-11.38-15-12.35a55.84,55.84,0,0,1-16.43-27.32c-2.51-9.88-1.08-21.91-1.33-32.16-.21-8.47,1.66-20.83-.4-29.63a22.3,22.3,0,0,0-1-3.12c-8.38-20.91-18.38-43.31-23.71-65.8-2.39-10-.67-16,9.55-13.59,1.19-5.63,2-11.14,7.34-14.6q4.1,5.35,8.23,10.73c-.87-7.41-1.35-16,4-21.15,1-.95,2.42-1.76,3.7-1.24a4.07,4.07,0,0,1,1.77,1.89,106.61,106.61,0,0,1,7.86,16.11c-.7-7.46,2.49-19.39,9.22-16.07,3.4,1.66,20.14,44.13,23.52,51.23,1.33,6.73,6.54,28.27,10.42,36.11,0,0-5.5,9.51,10.28-11.9s31.45-7.14,31.45-7.14A115.51,115.51,0,0,0,2888.5,1074.43Z"/><path class="cls-20" d="M2798.61,981.47a82.28,82.28,0,0,1,8,10.69q3.57,5.57,6.58,11.43t5.51,12a81.51,81.51,0,0,1,4.05,12.74,83,83,0,0,1-8-10.69q-3.57-5.58-6.57-11.44t-5.5-12A82.84,82.84,0,0,1,2798.61,981.47Z"/><path class="cls-20" d="M2812.15,974.4a72.45,72.45,0,0,1,8,11.64,125.78,125.78,0,0,1,6.16,12.56q2.73,6.42,4.83,13.09a98.89,98.89,0,0,1,3.37,13.67,82.81,82.81,0,0,1-7.48-12c-2.18-4.12-4.13-8.32-5.94-12.58s-3.46-8.57-5-12.94A126.61,126.61,0,0,1,2812.15,974.4Z"/><path class="cls-20" d="M2831.58,972.43c1.64,2,3.12,4.06,4.55,6.14s2.78,4.22,4.09,6.37,2.57,4.32,3.77,6.52,2.38,4.42,3.51,6.66l.16.32.08.39c1.08,5.31,2,10.66,2.6,16.06.32,2.7.58,5.41.74,8.14s.27,5.47.16,8.25c-1.15-2.53-2.09-5.11-3-7.7s-1.67-5.19-2.4-7.81c-1.46-5.24-2.66-10.53-3.67-15.85l.24.71c-1.1-2.25-2.17-4.52-3.18-6.81s-2-4.61-2.93-7-1.8-4.7-2.6-7.1S2832.17,974.94,2831.58,972.43Z"/><path class="cls-17" d="M2921.82,923.82c5,.33,10,1.88,10.56,1.29,4-4.23,14.58-5.09,20.14-1.64a16.4,16.4,0,0,1,8.27-3.28c3.3-.27,7.06,1,7.6,3.08,6.65-3.82,22.31-1.34,18.89,9.71-1.14,3.69-5.43,3.43-7.2,6.38-3,4.95-.42,12-2.78,17.52-1.72,4.06-5.59,8-11.56,9.78-7.47,2.31-2.44-5.07-7-5.45-3.08-.26-7.57,5.91-12.6,6a50.78,50.78,0,0,1-3.07-8.17c-2.38,4.49-5.6,9.53-12.67,11-1.31.28-2.94.36-3.88-.28a2.06,2.06,0,0,1-.79-1.56c-.26-1.8-3.24-12.57-1.55-13.78-11,7.89-10.81-3.58-10.61-7.61a47.91,47.91,0,0,0-1.58-12.61C2911,929.38,2911.83,923.17,2921.82,923.82Z"/><path class="cls-20" d="M2958.26,957.64a45,45,0,0,1-.53-8.54,77,77,0,0,1,2.23-16.64,44.05,44.05,0,0,1,2.77-8.1,44.12,44.12,0,0,1,.54,8.54,73,73,0,0,1-.67,8.38,75.58,75.58,0,0,1-1.57,8.26A45.08,45.08,0,0,1,2958.26,957.64Z"/><path class="cls-20" d="M2943.94,961a36.49,36.49,0,0,1-1.74-8.86,61.79,61.79,0,0,1-.07-8.92,76.39,76.39,0,0,1,1.06-8.79,54.88,54.88,0,0,1,2.22-8.69,44.25,44.25,0,0,1,1.11,8.93,86.09,86.09,0,0,1-.15,8.81c-.18,2.92-.47,5.82-.84,8.73A80.18,80.18,0,0,1,2943.94,961Z"/><path class="cls-20" d="M2925.52,956.86a27.29,27.29,0,0,1-1.47-8.33,32,32,0,0,1,.93-8.44,38.61,38.61,0,0,1,2.9-7.89,36.69,36.69,0,0,1,4.5-7.09,51.46,51.46,0,0,1-1.35,8.22c-.62,2.64-1.29,5.21-1.92,7.77s-1.2,5.1-1.74,7.71S2926.32,954.1,2925.52,956.86Z"/><path class="cls-28" d="M3456.92,1376.38a95.87,95.87,0,0,1-22.57,37.43c-17.22-23.73-27.83-53.39-35.27-82.19a629.58,629.58,0,0,1-19.66-139c6,35.68,9,65.1,12.6,76.49C3403,1303.93,3456.92,1376.38,3456.92,1376.38Z"/><path class="cls-28" d="M3363.82,1232.36a57.12,57.12,0,0,1,.32,8.32,105.43,105.43,0,0,1-7.32,36.41c-14.16,36.37-26.41,93.4-11.85,123.8-28.07-58.63-5.47-146.07,20.74-202.59"/><path class="cls-28" d="M3041.51,1228c-8,14.81-38.16,32.56-28.84,52.46-10.76-23-29.05-31-44.75-50.17-24.85-30.3-48.62-57.91-60-95.77,19.21,20.31,67.88,79.89,88.13,93.55,24.53,16.54,7.41,4,21.68,4.56a51.27,51.27,0,0,0,24.14-5.29C3041.74,1227.57,3041.63,1227.79,3041.51,1228Z"/><path class="cls-27" d="M3111.12,934.07c-4.86,6.26-11.56,11.74-19.7,12.68a7.5,7.5,0,0,1-5.79-1.85,13.24,13.24,0,0,1-1.71-1.72,19.53,19.53,0,0,1-2.05-3.07C3091.56,938,3102,937.56,3111.12,934.07Z"/><path class="cls-22" d="M3064.82,919c-4.91-6-22.88-3.37-26-10.9a3.24,3.24,0,0,1-.16-.47c8.78,3.95,16.38,2.94,25.66,1C3064.49,912,3064.65,915.49,3064.82,919Z"/><path class="cls-30" d="M3094.43,2643.37c2.45,1.46,5.9,2.44,10.53,2.75,19.17,1.3,38.79.35,58,.45,48.73.27,97.61.83,146.3-1.46,2.5-.11,32.85-.39,32.76-4.36-.91-28.27-9.22-58.41-16.73-85.89-.49-1.8-1.06-3.7-2.5-5-2.36-2-6-1.52-9.13-.95-14.9,2.72-29.57,3.69-44.36.46-3.68-.81-41-9.56-39.21-13-12.61,24.59-42.68,42.79-67.07,53.91-16.23,7.4-34.5,8.79-50.73,16.07C3097.09,2613.22,3081.1,2635.42,3094.43,2643.37Z"/><path class="cls-18" d="M3354.67,1903.06c-2.1,18.43-4.76,41.44-7.58,66.76a64.54,64.54,0,0,1-13,3.43c-58.33,8.7-120.36-13-160.46-56.28l4.74-17.64c1.11.41,2.23.82,3.36,1.22,1.58.57,3.19,1.11,4.81,1.62C3243.64,1920.35,3323.88,1908.68,3354.67,1903.06Z"/><path class="cls-18" d="M3329,2227.74q0,9.11,0,18.22c-10.56-15.79-19.28-33.28-18.93-39.92.4-7.39,10-28.05,20-47-.66,13-1.07,25-1.13,35.69A108.48,108.48,0,0,0,3329,2227.74Z"/><path class="cls-31" d="M2889.33,1134.66c-11,8.35-28,22.19-42.35,30-6.42-5.23-14-11.38-15-12.35a55.84,55.84,0,0,1-16.43-27.32c-2.51-9.88-1.08-21.91-1.33-32.16-.21-8.47,1.66-20.83-.4-29.63,25.59,14,6.2,57.66,51.83,52.69,9.24,4.51,14.68,4.31,20.2.06C2886.86,1121.46,2889,1129,2889.33,1134.66Z"/><path d="M3174.69,852.41c1.48,5.88,3.46,11.11,4.84,16.4-9.38-18.28-24.85-43.6-18-58.26a127.2,127.2,0,0,0-8.95,26.22c-1,.11-2,.19-2.93.22l1.27-3.15c7.24-12.52,6-27.13,3.31-40.74-2.6-13.22-.4-23.2-9.65-34.29q-16.5-19.84-33-39.66c18.15,10.14,34.07,19.93,43.39,38.73,7.93,16,11.55,33.59,14.9,51C3172.62,823.28,3171.08,838.12,3174.69,852.41Z"/><path d="M3238.33,884.62c8.3,29,4.94,59.29,2.23,89.25-1.69-16.17-9.67-31.17-18.28-45.37-1.44-9.44-3-18.86-2.68-28.88.57-18.52-.28-37.51-7.46-54.86-2.51-6-5.76-11.9-6.95-18.33-2.91-15.79-6.54-18.3-.38-33.14C3206.11,826.93,3229.34,853.25,3238.33,884.62Z"/><path d="M3273.45,753.66a76.79,76.79,0,0,1-18-.31c.33-.88.64-1.76.95-2.65-1.82-4.1,1.63-7.19,4.56-10.76a30.85,30.85,0,0,0,4.87,7.95A27.23,27.23,0,0,0,3273.45,753.66Z"/><path d="M3284.23,988.55c-6,14-6,30.63-8.37,46.44C3274.91,1021,3278,1002.31,3284.23,988.55Z"/><path d="M3270.46,1055.43a81,81,0,0,0,5.4-20.44,55,55,0,0,0,.68,5.77,423.36,423.36,0,0,1,5.41,49.17,25.86,25.86,0,0,1-9.48-13.63C3270.62,1069.58,3271.73,1062.2,3270.46,1055.43Z"/><path d="M3284.3,988.39a45.37,45.37,0,0,1,5.33-9.3A53.08,53.08,0,0,0,3284.3,988.39Z"/><path d="M3305.66,849.72a32.14,32.14,0,0,1-9.36-2.32,28.67,28.67,0,0,1-11.94-10.35,25.64,25.64,0,0,1-4.67-12.09c-.5-6.07.51-20.3,5-24.73,2.52-2.48,5.7-4.24,8.11-6.82a17.36,17.36,0,0,0,2.52-3.44c-1.42,6.47-3.39,12.92-4.05,19.5C3289.76,824.13,3295.52,839.09,3305.66,849.72Z"/><path d="M3355.88,1087.26c-.35,0-.71,0-1.06,0a6.35,6.35,0,0,1-2.78-.44c-2.49-.95-4.45-3.31-3.79-5.82a20.56,20.56,0,0,1-4.21,8.31c-.06-1.24-.18-2.47-.33-3.69-2.05-16.49-14.35-40.71,5.07-51.9-.47,5.43-3.3,10.37-4.2,15.74a23.12,23.12,0,0,0,9.53,22.42A39.68,39.68,0,0,0,3355.88,1087.26Z"/><path d="M3351,971.41c-11.1-11.35-18.24-26.19-16.3-42.37,1.53-12.64,11.74-14.66,19.56-22.36a40.08,40.08,0,0,0,11.08-20.81c.07.31.13.61.18.91.86,5.38-.92,10.8-3,15.83-4.77,11.72-11.15,22.91-14.06,35.23-5.4,22.79,5.2,32.37,18.38,43.6A42,42,0,0,1,3351,971.41Z"/><path class="cls-23" d="M3326.55,810.93a44,44,0,0,0,3.53,10.13,42.47,42.47,0,0,0,5.89,8.73,77.18,77.18,0,0,0,7.53,7.49l2,1.78c.66.51,1.28,1.06,1.95,1.53s1.33,1,2.06,1.34l1.06.61,1.1.54c2.94,1.45,6.26,2.17,9.85,3.07a41.11,41.11,0,0,1,5.52,1.79,26.36,26.36,0,0,1,5.42,3,29,29,0,0,1,2.45,2,20.18,20.18,0,0,1,2.27,2.44,19.48,19.48,0,0,1,3.06,5.73,16.43,16.43,0,0,1-.41,12L3379,873a22.85,22.85,0,0,0-4.13-9.25,19.13,19.13,0,0,0-3.16-3.25l-.86-.66c-.31-.19-.57-.39-.91-.58-.69-.38-1.32-.84-2-1.16-1.34-.76-2.81-1.36-4.28-2l-4.77-2A76.94,76.94,0,0,1,3348.4,849l-1.28-.81-1.23-.89c-.84-.57-1.58-1.27-2.36-1.91s-1.44-1.4-2.15-2.09l-1.89-2.07a82.37,82.37,0,0,1-6.93-8.95,44.27,44.27,0,0,1-4.95-10.25,41.18,41.18,0,0,1-1.9-11Z"/></g></svg>